# xmcd CD database file generated by Grip 3.3.1
# 
# Track frame offsets:
#       150
#       16352
#       34855
#       56853
#       77205
#       85277
#       106953
#       131393
#       147366
#       173155
#       191400
#       205633
#       214846
#       236070
# 
# Disc length: 3396 seconds
# 
# Revision: 2
# Processed by: cddbd v1.5.2PL0 Copyright (c) Steve Scherf et al.
# Submitted via: Grip 3.3.1
# 
DISCID=c20d420e
DTITLE=DJ Logic - Zen of Logic
DYEAR=2006
DGENRE=Jazz
TTITLE0=Peace Y'all (I am in the house)
TTITLE1=9th Ward Blues
TTITLE2=Balifon Planet
TTITLE3=Hypnotic
TTITLE4=Interlude #1
TTITLE5=Simmer Slow
TTITLE6=Afro Beat
TTITLE7=One Time
TTITLE8=Something Distant
TTITLE9=Hope Road
TTITLE10=Smackness
TTITLE11=Interlude #2
TTITLE12=Rat Pack
TTITLE13=Holding Down
EXTD=YEAR: 2006
EXTT0=
EXTT1=
EXTT2=
EXTT3=
EXTT4=
EXTT5=
EXTT6=
EXTT7=
EXTT8=
EXTT9=
EXTT10=
EXTT11=
EXTT12=
EXTT13=
PLAYORDER=
